<svg id="Layer_1" data-name="Layer 1" xmlns="http://www.w3.org/2000/svg" viewBox="0 0 116.25 20.69"><defs><style>.cls-1{fill:#231f20;}.cls-2{fill:#fff;stroke:#231f20;}.cls-2,.cls-4{stroke-miterlimit:10;stroke-width:0.5px;}.cls-3{fill:#e31d38;}.cls-4{fill:none;stroke:#fff;}</style></defs><path class="cls-1" d="M50.71,142a6.25,6.25,0,0,1-2.76-.53,3.11,3.11,0,0,1-1.5-1.42h-.14v1.62H44.37v-5.53h1.94v1.24a3.7,3.7,0,0,0,.21,1.26,2.49,2.49,0,0,0,.67,1,3.26,3.26,0,0,0,1.24.67,6.07,6.07,0,0,0,1.88.25,4.8,4.8,0,0,0,3.39-1,3.55,3.55,0,0,0,1-2.67,3.08,3.08,0,0,0-.8-2.25,5.37,5.37,0,0,0-2.5-1.26L50,133.05a8.73,8.73,0,0,1-3.89-2,4.64,4.64,0,0,1-1.38-3.56,4.83,4.83,0,0,1,.44-2.07,4.46,4.46,0,0,1,1.21-1.58,5.52,5.52,0,0,1,1.88-1,7.67,7.67,0,0,1,2.41-.36,5.79,5.79,0,0,1,2.53.48,2.79,2.79,0,0,1,1.39,1.31h.16v-1.46h1.94v5.26H54.71v-1.24a3.53,3.53,0,0,0-.2-1.21,2.14,2.14,0,0,0-.69-.92,3.4,3.4,0,0,0-1.27-.58,7.54,7.54,0,0,0-1.92-.2,4,4,0,0,0-2.83.86,2.94,2.94,0,0,0-.95,2.27,3.06,3.06,0,0,0,.85,2.28,6.19,6.19,0,0,0,2.69,1.31l1.38.35A8.33,8.33,0,0,1,55.55,133a4.57,4.57,0,0,1,1.32,3.41,6.12,6.12,0,0,1-.4,2.25,5.1,5.1,0,0,1-1.19,1.8,5.49,5.49,0,0,1-1.93,1.17A7.7,7.7,0,0,1,50.71,142Z" transform="translate(-44.37 -121.69)"/><path class="cls-1" d="M68.75,142a10.68,10.68,0,0,1-3.14-.41,4.72,4.72,0,0,1-2.15-1.32A5.53,5.53,0,0,1,62.24,138a14,14,0,0,1-.37-3.51V124.11h-2v-1.24h6.37v1.24h-2v10.77a11.3,11.3,0,0,0,.24,2.49,4.24,4.24,0,0,0,.8,1.74,3.48,3.48,0,0,0,1.44,1,6.19,6.19,0,0,0,2.22.35,4.52,4.52,0,0,0,3.75-1.39,6.72,6.72,0,0,0,1.11-4.23V124.11h-2v-1.24h5.54v1.24h-2v10a17.42,17.42,0,0,1-.32,3.55,5.91,5.91,0,0,1-1.1,2.47,4.59,4.59,0,0,1-2,1.45A8.73,8.73,0,0,1,68.75,142Z" transform="translate(-44.37 -121.69)"/><path class="cls-1" d="M86.44,142a6.27,6.27,0,0,1-2.77-.53,3.11,3.11,0,0,1-1.5-1.42H82v1.62H80.09v-5.53H82v1.24a3.7,3.7,0,0,0,.21,1.26,2.49,2.49,0,0,0,.67,1,3.26,3.26,0,0,0,1.24.67,6.07,6.07,0,0,0,1.88.25,4.8,4.8,0,0,0,3.39-1,3.55,3.55,0,0,0,1-2.67,3.08,3.08,0,0,0-.8-2.25,5.37,5.37,0,0,0-2.5-1.26l-1.48-.38a8.73,8.73,0,0,1-3.89-2,4.64,4.64,0,0,1-1.38-3.56,4.83,4.83,0,0,1,.44-2.07,4.46,4.46,0,0,1,1.21-1.58,5.52,5.52,0,0,1,1.88-1,7.67,7.67,0,0,1,2.41-.36,5.79,5.79,0,0,1,2.53.48,2.79,2.79,0,0,1,1.39,1.31h.16v-1.46h1.95v5.26H90.43v-1.24a3.53,3.53,0,0,0-.2-1.21,2.14,2.14,0,0,0-.69-.92,3.4,3.4,0,0,0-1.27-.58,7.54,7.54,0,0,0-1.92-.2,4,4,0,0,0-2.83.86,2.94,2.94,0,0,0-1,2.27,3,3,0,0,0,.86,2.28,6.08,6.08,0,0,0,2.68,1.31l1.38.35A8.33,8.33,0,0,1,91.27,133a4.57,4.57,0,0,1,1.32,3.41,6.12,6.12,0,0,1-.4,2.25,5.1,5.1,0,0,1-1.19,1.8,5.49,5.49,0,0,1-1.93,1.17A7.64,7.64,0,0,1,86.44,142Z" transform="translate(-44.37 -121.69)"/><path class="cls-1" d="M95.83,140.47h2V124.11h-2v-1.24h6.37v1.24h-2v7.34h9.58v-7.34h-2v-1.24h6.37v1.24h-2v16.36h2v1.24h-6.37v-1.24h2v-7.69h-9.58v7.69h2v1.24H95.83Z" transform="translate(-44.37 -121.69)"/><path class="cls-1" d="M117.08,140.47h2V124.11h-2v-1.24h6.37v1.24h-2v16.36h2v1.24h-6.37Z" transform="translate(-44.37 -121.69)"/><ellipse class="cls-2" cx="143.26" cy="133.07" rx="7.67" ry="17" transform="translate(-72.76 105.03) rotate(-71.5)"/><path class="cls-3" d="M159.67,140.48c-1.67,3.17-8,2.06-18.09-3.26s-17.51-9.86-15.84-13,12.74-3.64,23.41.44C162.33,129.67,161.34,137.31,159.67,140.48Z" transform="translate(-44.37 -121.69)"/><path class="cls-4" d="M138.33,122.22s-6.11,1-6.89,9" transform="translate(-44.37 -121.69)"/><path class="cls-4" d="M146.63,123.74s-8.89,4.89-7.56,12.15" transform="translate(-44.37 -121.69)"/><path class="cls-4" d="M155.52,128a12.55,12.55,0,0,0-9.93,11.11" transform="translate(-44.37 -121.69)"/></svg>