<svg id="Layer_1" data-name="Layer 1" xmlns="http://www.w3.org/2000/svg" viewBox="0 0 111.67 77.97"><defs><style>.cls-1{fill:#1b75bc;}.cls-2{fill:#231f20;}</style></defs><title>nc_logo2</title><rect class="cls-1" x="230.99" y="291.6" width="55.13" height="55.13" transform="translate(81.84 -369.52) rotate(45)"/><path class="cls-2" d="M297.72,296.65v-1.53H283.9V313A25.46,25.46,0,0,1,297.72,296.65Z" transform="translate(-219.57 -280.18)"/><path class="cls-2" d="M297.32,320.32a16.64,16.64,0,0,0,.4,3.58v-7.21a15.88,15.88,0,0,0-.4,3.49Z" transform="translate(-219.57 -280.18)"/><path class="cls-2" d="M282.92,320.5l-19.76-25.38h-13v50.4H264V317.87l21.53,27.65h12.24v-1.4A25.56,25.56,0,0,1,282.92,320.5Z" transform="translate(-219.57 -280.18)"/><path class="cls-2" d="M320.72,327.67c-3,3.67-6.12,6.12-11.37,6.12-5.9,0-10.32-4.13-11.63-9.89v20.22a26.84,26.84,0,0,0,11.19,2.41c11.17,0,17.57-4.82,22.33-11.38Z" transform="translate(-219.57 -280.18)"/><path class="cls-2" d="M309.35,306.85c4.82,0,8.13,2.31,11,5.91l10.52-8.14c-4.47-6.19-11.09-10.51-21.39-10.51a27.8,27.8,0,0,0-11.77,2.54v20C299,311,303.45,306.85,309.35,306.85Z" transform="translate(-219.57 -280.18)"/><path class="cls-2" d="M283.9,313a27.22,27.22,0,0,0-1,7.28v.18l1,1.26Z" transform="translate(-219.57 -280.18)"/></svg>